<mxfile host="Electron" agent="Mozilla/5.0 (Windows NT 10.0; Win64; x64) AppleWebKit/537.36 (KHTML, like Gecko) draw.io/26.1.1 Chrome/132.0.6834.210 Electron/34.3.3 Safari/537.36" version="26.1.1">
  <diagram name="Page-1" id="gUTYqQ5DlD3kqzwar7wv">
    <mxGraphModel dx="880" dy="524" grid="1" gridSize="10" guides="1" tooltips="1" connect="1" arrows="1" fold="1" page="1" pageScale="1" pageWidth="850" pageHeight="1100" math="0" shadow="0">
      <root>
        <mxCell id="0" />
        <mxCell id="1" parent="0" />
        <mxCell id="UfS8-wutKQqmXNFUzoVd-2" value="crm_cust_info" style="swimlane;fontStyle=0;childLayout=stackLayout;horizontal=1;startSize=30;horizontalStack=0;resizeParent=1;resizeParentMax=0;resizeLast=0;collapsible=1;marginBottom=0;whiteSpace=wrap;html=1;rounded=1;" vertex="1" parent="1">
          <mxGeometry x="310" y="130" width="140" height="90" as="geometry" />
        </mxCell>
        <mxCell id="UfS8-wutKQqmXNFUzoVd-3" value="cst_id" style="text;strokeColor=none;fillColor=none;align=left;verticalAlign=middle;spacingLeft=4;spacingRight=4;overflow=hidden;points=[[0,0.5],[1,0.5]];portConstraint=eastwest;rotatable=0;whiteSpace=wrap;html=1;" vertex="1" parent="UfS8-wutKQqmXNFUzoVd-2">
          <mxGeometry y="30" width="140" height="30" as="geometry" />
        </mxCell>
        <mxCell id="UfS8-wutKQqmXNFUzoVd-22" value="cst_key" style="text;strokeColor=none;fillColor=none;align=left;verticalAlign=middle;spacingLeft=4;spacingRight=4;overflow=hidden;points=[[0,0.5],[1,0.5]];portConstraint=eastwest;rotatable=0;whiteSpace=wrap;html=1;" vertex="1" parent="UfS8-wutKQqmXNFUzoVd-2">
          <mxGeometry y="60" width="140" height="30" as="geometry" />
        </mxCell>
        <mxCell id="UfS8-wutKQqmXNFUzoVd-10" value="crm_prd_info" style="swimlane;fontStyle=0;childLayout=stackLayout;horizontal=1;startSize=30;horizontalStack=0;resizeParent=1;resizeParentMax=0;resizeLast=0;collapsible=1;marginBottom=0;whiteSpace=wrap;html=1;rounded=1;" vertex="1" parent="1">
          <mxGeometry x="285" y="420" width="140" height="60" as="geometry" />
        </mxCell>
        <mxCell id="UfS8-wutKQqmXNFUzoVd-11" value="prd_key" style="text;strokeColor=none;fillColor=none;align=left;verticalAlign=middle;spacingLeft=4;spacingRight=4;overflow=hidden;points=[[0,0.5],[1,0.5]];portConstraint=eastwest;rotatable=0;whiteSpace=wrap;html=1;" vertex="1" parent="UfS8-wutKQqmXNFUzoVd-10">
          <mxGeometry y="30" width="140" height="30" as="geometry" />
        </mxCell>
        <mxCell id="UfS8-wutKQqmXNFUzoVd-12" value="Customer&amp;nbsp;&lt;div&gt;Information&lt;/div&gt;" style="text;html=1;align=center;verticalAlign=middle;resizable=0;points=[];autosize=1;strokeColor=none;fillColor=none;" vertex="1" parent="1">
          <mxGeometry x="330" y="90" width="80" height="40" as="geometry" />
        </mxCell>
        <mxCell id="UfS8-wutKQqmXNFUzoVd-13" value="Current and History&lt;div&gt;Product Information&lt;/div&gt;" style="text;html=1;align=center;verticalAlign=middle;resizable=0;points=[];autosize=1;strokeColor=none;fillColor=none;" vertex="1" parent="1">
          <mxGeometry x="285" y="380" width="130" height="40" as="geometry" />
        </mxCell>
        <mxCell id="UfS8-wutKQqmXNFUzoVd-14" value="crm_sales_details" style="swimlane;fontStyle=0;childLayout=stackLayout;horizontal=1;startSize=30;horizontalStack=0;resizeParent=1;resizeParentMax=0;resizeLast=0;collapsible=1;marginBottom=0;whiteSpace=wrap;html=1;rounded=1;" vertex="1" parent="1">
          <mxGeometry x="40" y="190" width="140" height="90" as="geometry" />
        </mxCell>
        <mxCell id="UfS8-wutKQqmXNFUzoVd-17" value="cst_id" style="text;strokeColor=none;fillColor=none;align=left;verticalAlign=middle;spacingLeft=4;spacingRight=4;overflow=hidden;points=[[0,0.5],[1,0.5]];portConstraint=eastwest;rotatable=0;whiteSpace=wrap;html=1;" vertex="1" parent="UfS8-wutKQqmXNFUzoVd-14">
          <mxGeometry y="30" width="140" height="30" as="geometry" />
        </mxCell>
        <mxCell id="UfS8-wutKQqmXNFUzoVd-15" value="prd_key" style="text;strokeColor=none;fillColor=none;align=left;verticalAlign=middle;spacingLeft=4;spacingRight=4;overflow=hidden;points=[[0,0.5],[1,0.5]];portConstraint=eastwest;rotatable=0;whiteSpace=wrap;html=1;" vertex="1" parent="UfS8-wutKQqmXNFUzoVd-14">
          <mxGeometry y="60" width="140" height="30" as="geometry" />
        </mxCell>
        <mxCell id="UfS8-wutKQqmXNFUzoVd-16" value="Sales Details" style="text;html=1;align=center;verticalAlign=middle;resizable=0;points=[];autosize=1;strokeColor=none;fillColor=none;" vertex="1" parent="1">
          <mxGeometry x="55" y="160" width="90" height="30" as="geometry" />
        </mxCell>
        <mxCell id="UfS8-wutKQqmXNFUzoVd-18" style="edgeStyle=orthogonalEdgeStyle;rounded=0;orthogonalLoop=1;jettySize=auto;html=1;exitX=0;exitY=0.5;exitDx=0;exitDy=0;entryX=1;entryY=0.5;entryDx=0;entryDy=0;" edge="1" parent="1" source="UfS8-wutKQqmXNFUzoVd-3" target="UfS8-wutKQqmXNFUzoVd-17">
          <mxGeometry relative="1" as="geometry" />
        </mxCell>
        <mxCell id="UfS8-wutKQqmXNFUzoVd-19" style="edgeStyle=orthogonalEdgeStyle;rounded=0;orthogonalLoop=1;jettySize=auto;html=1;exitX=0;exitY=0.5;exitDx=0;exitDy=0;entryX=1;entryY=0.5;entryDx=0;entryDy=0;" edge="1" parent="1" source="UfS8-wutKQqmXNFUzoVd-11" target="UfS8-wutKQqmXNFUzoVd-15">
          <mxGeometry relative="1" as="geometry" />
        </mxCell>
        <mxCell id="UfS8-wutKQqmXNFUzoVd-20" value="erp_cust_az12" style="swimlane;fontStyle=0;childLayout=stackLayout;horizontal=1;startSize=30;horizontalStack=0;resizeParent=1;resizeParentMax=0;resizeLast=0;collapsible=1;marginBottom=0;whiteSpace=wrap;html=1;rounded=1;" vertex="1" parent="1">
          <mxGeometry x="620" y="130" width="140" height="60" as="geometry" />
        </mxCell>
        <mxCell id="UfS8-wutKQqmXNFUzoVd-21" value="cid" style="text;strokeColor=none;fillColor=none;align=left;verticalAlign=middle;spacingLeft=4;spacingRight=4;overflow=hidden;points=[[0,0.5],[1,0.5]];portConstraint=eastwest;rotatable=0;whiteSpace=wrap;html=1;" vertex="1" parent="UfS8-wutKQqmXNFUzoVd-20">
          <mxGeometry y="30" width="140" height="30" as="geometry" />
        </mxCell>
        <mxCell id="UfS8-wutKQqmXNFUzoVd-23" style="edgeStyle=orthogonalEdgeStyle;rounded=0;orthogonalLoop=1;jettySize=auto;html=1;exitX=0;exitY=0.5;exitDx=0;exitDy=0;" edge="1" parent="1" source="UfS8-wutKQqmXNFUzoVd-21" target="UfS8-wutKQqmXNFUzoVd-22">
          <mxGeometry relative="1" as="geometry" />
        </mxCell>
        <mxCell id="UfS8-wutKQqmXNFUzoVd-24" value="erp_loc_a101" style="swimlane;fontStyle=0;childLayout=stackLayout;horizontal=1;startSize=30;horizontalStack=0;resizeParent=1;resizeParentMax=0;resizeLast=0;collapsible=1;marginBottom=0;whiteSpace=wrap;html=1;rounded=1;" vertex="1" parent="1">
          <mxGeometry x="620" y="240" width="140" height="60" as="geometry" />
        </mxCell>
        <mxCell id="UfS8-wutKQqmXNFUzoVd-25" value="cid" style="text;strokeColor=none;fillColor=none;align=left;verticalAlign=middle;spacingLeft=4;spacingRight=4;overflow=hidden;points=[[0,0.5],[1,0.5]];portConstraint=eastwest;rotatable=0;whiteSpace=wrap;html=1;" vertex="1" parent="UfS8-wutKQqmXNFUzoVd-24">
          <mxGeometry y="30" width="140" height="30" as="geometry" />
        </mxCell>
        <mxCell id="UfS8-wutKQqmXNFUzoVd-26" value="Extra Customer&lt;div&gt;Information&lt;/div&gt;&lt;div&gt;(birth date)&lt;/div&gt;" style="text;html=1;align=center;verticalAlign=middle;resizable=0;points=[];autosize=1;strokeColor=none;fillColor=none;" vertex="1" parent="1">
          <mxGeometry x="630" y="80" width="110" height="60" as="geometry" />
        </mxCell>
        <mxCell id="UfS8-wutKQqmXNFUzoVd-27" value="Extra Customer&amp;nbsp;&lt;div&gt;Information&lt;/div&gt;&lt;div&gt;(location)&lt;/div&gt;" style="text;html=1;align=center;verticalAlign=middle;resizable=0;points=[];autosize=1;strokeColor=none;fillColor=none;" vertex="1" parent="1">
          <mxGeometry x="630" y="190" width="110" height="60" as="geometry" />
        </mxCell>
        <mxCell id="UfS8-wutKQqmXNFUzoVd-28" style="edgeStyle=orthogonalEdgeStyle;rounded=0;orthogonalLoop=1;jettySize=auto;html=1;exitX=0;exitY=0.5;exitDx=0;exitDy=0;entryX=1;entryY=0.5;entryDx=0;entryDy=0;" edge="1" parent="1" source="UfS8-wutKQqmXNFUzoVd-25" target="UfS8-wutKQqmXNFUzoVd-22">
          <mxGeometry relative="1" as="geometry" />
        </mxCell>
        <mxCell id="UfS8-wutKQqmXNFUzoVd-30" value="crm_px_cat_g1v2" style="swimlane;fontStyle=0;childLayout=stackLayout;horizontal=1;startSize=30;horizontalStack=0;resizeParent=1;resizeParentMax=0;resizeLast=0;collapsible=1;marginBottom=0;whiteSpace=wrap;html=1;rounded=1;" vertex="1" parent="1">
          <mxGeometry x="610" y="410" width="140" height="60" as="geometry" />
        </mxCell>
        <mxCell id="UfS8-wutKQqmXNFUzoVd-31" value="id" style="text;strokeColor=none;fillColor=none;align=left;verticalAlign=middle;spacingLeft=4;spacingRight=4;overflow=hidden;points=[[0,0.5],[1,0.5]];portConstraint=eastwest;rotatable=0;whiteSpace=wrap;html=1;" vertex="1" parent="UfS8-wutKQqmXNFUzoVd-30">
          <mxGeometry y="30" width="140" height="30" as="geometry" />
        </mxCell>
        <mxCell id="UfS8-wutKQqmXNFUzoVd-32" value="Extra Production&lt;div&gt;(Category Information)&lt;/div&gt;" style="text;html=1;align=center;verticalAlign=middle;resizable=0;points=[];autosize=1;strokeColor=none;fillColor=none;" vertex="1" parent="1">
          <mxGeometry x="610" y="370" width="140" height="40" as="geometry" />
        </mxCell>
        <mxCell id="UfS8-wutKQqmXNFUzoVd-33" style="edgeStyle=orthogonalEdgeStyle;rounded=0;orthogonalLoop=1;jettySize=auto;html=1;exitX=0;exitY=0.5;exitDx=0;exitDy=0;entryX=0.964;entryY=0.167;entryDx=0;entryDy=0;entryPerimeter=0;" edge="1" parent="1" source="UfS8-wutKQqmXNFUzoVd-31" target="UfS8-wutKQqmXNFUzoVd-11">
          <mxGeometry relative="1" as="geometry" />
        </mxCell>
        <mxCell id="UfS8-wutKQqmXNFUzoVd-34" value="" style="rounded=1;whiteSpace=wrap;html=1;fillColor=none;dashed=1;dashPattern=1 4;" vertex="1" parent="1">
          <mxGeometry x="20" y="60" width="440" height="430" as="geometry" />
        </mxCell>
        <mxCell id="UfS8-wutKQqmXNFUzoVd-35" value="CRM&amp;nbsp;&lt;div&gt;Data Source&lt;/div&gt;" style="text;html=1;align=center;verticalAlign=middle;resizable=0;points=[];autosize=1;strokeColor=#d79b00;fillColor=#ffe6cc;rounded=1;glass=1;" vertex="1" parent="1">
          <mxGeometry x="160" y="40" width="90" height="40" as="geometry" />
        </mxCell>
        <mxCell id="UfS8-wutKQqmXNFUzoVd-36" value="" style="rounded=1;whiteSpace=wrap;html=1;fillColor=none;dashed=1;strokeColor=#d79b00;" vertex="1" parent="1">
          <mxGeometry x="500" y="50" width="350" height="440" as="geometry" />
        </mxCell>
        <mxCell id="UfS8-wutKQqmXNFUzoVd-37" value="ERP Data Source" style="text;html=1;align=center;verticalAlign=middle;resizable=0;points=[];autosize=1;strokeColor=#b85450;fillColor=#f8cecc;rounded=1;glass=1;" vertex="1" parent="1">
          <mxGeometry x="600" y="30" width="120" height="30" as="geometry" />
        </mxCell>
      </root>
    </mxGraphModel>
  </diagram>
</mxfile>
